<svg width="14" height="14" viewBox="0 0 14 14" fill="none" xmlns="http://www.w3.org/2000/svg">
<path d="M10.586 6.15692L6.63597 2.20692C6.45381 2.01832 6.35302 1.76571 6.3553 1.50352C6.35757 1.24132 6.46274 0.990508 6.64815 0.8051C6.83356 0.619692 7.08437 0.514523 7.34657 0.512245C7.60876 0.509966 7.86137 0.610761 8.04997 0.792919L13.707 6.44992C13.8002 6.54257 13.8741 6.65273 13.9246 6.77407C13.975 6.8954 14.001 7.02551 14.001 7.15692C14.001 7.28833 13.975 7.41844 13.9246 7.53977C13.8741 7.66111 13.8002 7.77127 13.707 7.86392L8.04997 13.5209C7.95772 13.6164 7.84738 13.6926 7.72537 13.745C7.60337 13.7974 7.47215 13.825 7.33937 13.8262C7.20659 13.8273 7.07491 13.802 6.95202 13.7517C6.82912 13.7015 6.71747 13.6272 6.62357 13.5333C6.52968 13.4394 6.45543 13.3278 6.40515 13.2049C6.35487 13.082 6.32957 12.9503 6.33072 12.8175C6.33187 12.6847 6.35946 12.5535 6.41187 12.4315C6.46428 12.3095 6.54046 12.1992 6.63597 12.1069L10.586 8.15692H0.999969C0.734753 8.15692 0.480399 8.05156 0.292863 7.86403C0.105326 7.67649 -3.05176e-05 7.42214 -3.05176e-05 7.15692C-3.05176e-05 6.8917 0.105326 6.63735 0.292863 6.44981C0.480399 6.26228 0.734753 6.15692 0.999969 6.15692H10.586Z" fill="#F4F7FA"/>
</svg>
