<svg width="24" height="25" viewBox="0 0 24 25" fill="none" xmlns="http://www.w3.org/2000/svg">
<path fill-rule="evenodd" clip-rule="evenodd" d="M3 7.92578C3 7.51157 3.33579 7.17578 3.75 7.17578H20.25C20.6642 7.17578 21 7.51157 21 7.92578C21 8.33999 20.6642 8.67578 20.25 8.67578H3.75C3.33579 8.67578 3 8.33999 3 7.92578Z" fill="#0F172A"/>
<path fill-rule="evenodd" clip-rule="evenodd" d="M3 12.4258C3 12.0116 3.33579 11.6758 3.75 11.6758H20.25C20.6642 11.6758 21 12.0116 21 12.4258C21 12.84 20.6642 13.1758 20.25 13.1758H3.75C3.33579 13.1758 3 12.84 3 12.4258Z" fill="#0F172A"/>
<path fill-rule="evenodd" clip-rule="evenodd" d="M3 16.9258C3 16.5116 3.33579 16.1758 3.75 16.1758H20.25C20.6642 16.1758 21 16.5116 21 16.9258C21 17.34 20.6642 17.6758 20.25 17.6758H3.75C3.33579 17.6758 3 17.34 3 16.9258Z" fill="#0F172A"/>
</svg>
