<svg width="67" height="66" viewBox="0 0 67 66" fill="none" xmlns="http://www.w3.org/2000/svg">
<path d="M44.0237 0.5H23.7782C5.27841 0.5 0.882812 4.83225 0.882812 23.0128V42.9548C0.882812 61.1677 5.24871 65.5 23.7419 65.5H43.9907C62.4839 65.5 66.8828 61.2002 66.8828 42.9873V23.0485C66.8828 4.829 62.5169 0.5 44.0237 0.5ZM54.1646 46.8775H49.3499C47.5283 46.8775 46.9805 45.4248 43.7135 42.2073C40.8623 39.5 39.6578 39.162 38.9351 39.162C37.9385 39.162 37.6646 39.4318 37.6646 40.787V45.051C37.6646 46.2048 37.2851 46.8807 34.226 46.8807C31.2572 46.6843 28.3782 45.7959 25.8262 44.289C23.2742 42.782 21.1223 40.6995 19.5476 38.213C15.8093 33.6305 13.2081 28.2522 11.951 22.5057C11.951 21.794 12.2249 21.1505 13.601 21.1505H18.4157C19.6532 21.1505 20.0987 21.6933 20.5805 22.9445C22.9169 29.7175 26.9033 35.6065 28.5203 35.6065C29.1407 35.6065 29.4113 35.3368 29.4113 33.8125V26.838C29.2067 23.6562 27.4907 23.3865 27.4907 22.236C27.5128 21.9325 27.654 21.6495 27.8844 21.4468C28.1148 21.2442 28.4163 21.1379 28.7249 21.1505H36.2885C37.3214 21.1505 37.6646 21.6575 37.6646 22.8763V32.2882C37.6646 33.3055 38.1101 33.6435 38.4203 33.6435C39.0407 33.6435 39.5192 33.3055 40.6544 32.1875C43.0927 29.2591 45.0848 25.9965 46.568 22.5025C46.7196 22.0828 47.0065 21.7235 47.3849 21.4794C47.7632 21.2353 48.2123 21.1198 48.6635 21.1505H53.4782C54.9203 21.1505 55.2272 21.8623 54.9203 22.8763C53.1696 26.7386 51.0034 30.405 48.4589 33.8125C47.9408 34.5925 47.7329 34.9987 48.4589 35.912C48.9374 36.6237 50.6237 38.0115 51.7589 39.331C53.4086 40.9516 54.7785 42.8266 55.8146 44.882C56.2271 46.2015 55.5374 46.8775 54.1646 46.8775Z" fill="#0069FF"/>
</svg>
