<svg width="66" height="64" viewBox="0 0 66 64" fill="none" xmlns="http://www.w3.org/2000/svg">
<path d="M14.2455 31.8C14.2455 35.3571 15.2612 38.8286 17.1763 41.8143L17.6261 42.5286L15.6964 49.4714L22.9364 47.6L23.6328 48.0143C26.5636 49.7286 29.9297 50.6429 33.3683 50.6429H33.3828C43.9163 50.6429 52.7232 42.2 52.7232 31.8143C52.7232 26.7857 50.5179 22.0571 46.9051 18.5C43.2779 14.9286 38.49 12.9714 33.3828 12.9714C22.8348 12.9714 14.26 21.4143 14.2455 31.8ZM40.7533 42.5714C38.9252 42.8429 37.5033 42.7 33.8616 41.1571C28.5223 38.8857 24.8951 33.8 24.1551 32.7714C24.0971 32.6857 24.0536 32.6429 24.0391 32.6143C23.7489 32.2429 21.6886 29.5429 21.6886 26.7571C21.6886 24.1286 22.9944 22.7714 23.6038 22.1429C23.6473 22.1 23.6763 22.0714 23.7054 22.0286C24.2277 21.4571 24.8516 21.3143 25.2433 21.3143C25.6205 21.3143 26.0123 21.3143 26.346 21.3286H26.4621C26.7958 21.3286 27.2165 21.3286 27.6373 22.3C27.8114 22.7143 28.0725 23.3429 28.3482 23.9857C28.827 25.1286 29.3203 26.3143 29.4074 26.5C29.5525 26.7857 29.654 27.1143 29.4509 27.4857C28.9576 28.4571 28.4498 28.9714 28.1016 29.3429C27.6518 29.8 27.4487 30.0143 27.7679 30.5714C29.9877 34.3286 32.2076 35.6286 35.5882 37.3C36.1685 37.5857 36.5022 37.5429 36.8359 37.1571C37.1696 36.7857 38.2723 35.5 38.6496 34.9429C39.0268 34.3714 39.4185 34.4714 39.9408 34.6571C40.4632 34.8429 43.2924 36.2143 43.8728 36.5C43.9888 36.5571 44.0904 36.6 44.1775 36.6429C44.5837 36.8429 44.8594 36.9714 44.9754 37.1571C45.106 37.4286 45.106 38.5714 44.6272 39.8857C44.1484 41.2143 41.856 42.4143 40.7533 42.5714ZM65.8828 9.14286C65.8828 4.1 61.7188 0 56.5971 0H10.1685C5.04688 0 0.882812 4.1 0.882812 9.14286V54.8571C0.882812 59.9 5.04688 64 10.1685 64H56.5971C61.7188 64 65.8828 59.9 65.8828 54.8571V9.14286ZM22.3705 51.7L10.1685 54.8571L13.433 43.1143C11.4163 39.6857 10.3571 35.7857 10.3571 31.7857C10.3717 19.3 20.6875 9.14286 33.3683 9.14286C39.5201 9.14286 45.2946 11.5 49.6473 15.7857C53.9855 20.0714 56.5971 25.7571 56.5971 31.8143C56.5971 44.3 46.0491 54.4571 33.3683 54.4571C29.5089 54.4571 25.7221 53.5 22.3705 51.7Z" fill="#11D400"/>
</svg>
