<svg width="19" height="19" viewBox="0 0 19 19" fill="none" xmlns="http://www.w3.org/2000/svg">
<g clip-path="url(#clip0_105_749)">
<path d="M0.549577 9.38607C0.549135 10.9824 0.966251 12.5412 1.75939 13.9151L0.473724 18.6092L5.27763 17.3496C6.60633 18.073 8.09504 18.452 9.60786 18.4521H9.61184C14.606 18.4521 18.6713 14.3882 18.6734 9.39321C18.6744 6.97278 17.7326 4.69675 16.0216 2.9844C14.3109 1.27219 12.0357 0.328741 9.61147 0.327637C4.61676 0.327637 0.551713 4.39128 0.549651 9.38607" fill="url(#paint0_linear_105_749)"/>
<path d="M0.226061 9.38335C0.225546 11.0372 0.657611 12.6516 1.47903 14.0747L0.147263 18.9372L5.12342 17.6324C6.49451 18.38 8.03823 18.7741 9.60904 18.7747H9.61309C14.7864 18.7747 18.9978 14.5647 19 9.39086C19.0009 6.88345 18.0252 4.52561 16.2531 2.75191C14.4807 0.978426 12.1241 0.00103101 9.61309 0C4.4389 0 0.228123 4.20946 0.226061 9.38335ZM3.18955 13.8296L3.00374 13.5347C2.22268 12.2928 1.81043 10.8576 1.81101 9.38394C1.81263 5.08353 5.31246 1.58481 9.61604 1.58481C11.7001 1.58569 13.6588 2.39812 15.1319 3.87217C16.605 5.34637 17.4156 7.30602 17.4151 9.39027C17.4132 13.6907 13.9133 17.1898 9.61309 17.1898H9.61C8.20982 17.1891 6.83659 16.8131 5.639 16.1025L5.354 15.9335L2.40105 16.7077L3.18955 13.8296Z" fill="url(#paint1_linear_105_749)"/>
<path d="M7.26696 5.46052C7.09124 5.06999 6.90633 5.06211 6.73923 5.05526C6.6024 5.04937 6.44598 5.04981 6.28971 5.04981C6.13329 5.04981 5.87915 5.10865 5.66433 5.34321C5.44929 5.57798 4.84335 6.14533 4.84335 7.29925C4.84335 8.45324 5.68385 9.56843 5.80101 9.72506C5.91833 9.88141 7.4236 12.3252 9.80758 13.2653C11.7889 14.0466 12.1921 13.8912 12.6221 13.852C13.0522 13.813 14.0098 13.2848 14.2052 12.7372C14.4007 12.1895 14.4007 11.7201 14.3421 11.622C14.2835 11.5243 14.1271 11.4656 13.8925 11.3484C13.6579 11.2311 12.5048 10.6637 12.2898 10.5854C12.0748 10.5072 11.9184 10.4681 11.762 10.703C11.6056 10.9375 11.1564 11.4656 11.0195 11.622C10.8828 11.7788 10.7459 11.7983 10.5114 11.681C10.2767 11.5634 9.52133 11.316 8.62516 10.517C7.92791 9.89533 7.45718 9.1276 7.32035 8.89275C7.18352 8.65827 7.30569 8.53116 7.4233 8.41429C7.52869 8.3092 7.65793 8.14041 7.77532 8.0035C7.89226 7.86653 7.93129 7.7688 8.0095 7.61238C8.08779 7.45582 8.04861 7.31884 7.99006 7.20153C7.93129 7.08421 7.47552 5.92425 7.26696 5.46052Z" fill="white"/>
</g>
<defs>
<linearGradient id="paint0_linear_105_749" x1="910.459" y1="1828.49" x2="910.459" y2="0.327637" gradientUnits="userSpaceOnUse">
<stop stop-color="#1FAF38"/>
<stop offset="1" stop-color="#60D669"/>
</linearGradient>
<linearGradient id="paint1_linear_105_749" x1="942.783" y1="1893.72" x2="942.783" y2="0" gradientUnits="userSpaceOnUse">
<stop stop-color="#F9F9F9"/>
<stop offset="1" stop-color="white"/>
</linearGradient>
<clipPath id="clip0_105_749">
<rect width="18.8527" height="19" fill="white" transform="translate(0.147263)"/>
</clipPath>
</defs>
</svg>
