<svg width="61" height="48" viewBox="0 0 61 48" fill="none" xmlns="http://www.w3.org/2000/svg">
<path d="M43.3204 9.57887L39.7434 3.92706C38.9895 3.04825 37.9562 2.5 36.7979 2.5H24.4354C23.2771 2.5 22.2437 3.04825 21.4899 3.92706L17.9128 9.57887C17.159 10.459 16.1874 11.1 15.0291 11.1H6.96663C5.82619 11.1 4.73247 11.553 3.92607 12.3594C3.11966 13.1658 2.66663 14.2596 2.66663 15.4V41.2C2.66663 42.3404 3.11966 43.4342 3.92607 44.2406C4.73247 45.047 5.82619 45.5 6.96663 45.5H54.2666C55.4071 45.5 56.5008 45.047 57.3072 44.2406C58.1136 43.4342 58.5666 42.3404 58.5666 41.2V15.4C58.5666 14.2596 58.1136 13.1658 57.3072 12.3594C56.5008 11.553 55.4071 11.1 54.2666 11.1H46.3385C45.1762 11.1 44.0743 10.459 43.3204 9.57887Z" stroke="#001334" stroke-width="4" stroke-linecap="round" stroke-linejoin="round"/>
<path d="M30.6166 36.9004C36.5536 36.9004 41.3666 32.0875 41.3666 26.1504C41.3666 20.2133 36.5536 15.4004 30.6166 15.4004C24.6795 15.4004 19.8666 20.2133 19.8666 26.1504C19.8666 32.0875 24.6795 36.9004 30.6166 36.9004Z" stroke="#001334" stroke-width="4" stroke-miterlimit="10"/>
<path d="M12.8792 10.8313V7.875H9.65424V10.8313" stroke="#001334" stroke-width="4" stroke-linecap="round" stroke-linejoin="round"/>
</svg>
