<svg width="55" height="58" viewBox="0 0 55 58" fill="none" xmlns="http://www.w3.org/2000/svg">
<path d="M33.5714 46.2143H2V2.5H40.8571V12.2143M40.8571 12.2143C44.0776 12.2143 47.1662 13.4936 49.4434 15.7708C51.7207 18.0481 53 21.1367 53 24.3571C53 27.5776 51.7207 30.6662 49.4434 32.9434C47.1662 35.2207 44.0776 36.5 40.8571 36.5C37.6367 36.5 34.5481 35.2207 32.2708 32.9434C29.9936 30.6662 28.7143 27.5776 28.7143 24.3571C28.7143 21.1367 29.9936 18.0481 32.2708 15.7708C34.5481 13.4936 37.6367 12.2143 40.8571 12.2143ZM33.5714 34.0714V53.5L40.8571 48.6429L48.1429 53.5V34.0714M9.28571 19.5H23.8571M9.28571 26.7857H21.4286M9.28571 34.0714H14.1429M9.28571 12.2143H14.1429" stroke="#001334" stroke-width="4"/>
</svg>
