<svg width="58" height="58" viewBox="0 0 58 58" fill="none" xmlns="http://www.w3.org/2000/svg">
<path d="M12.8889 13.2111H38.6666V15.7889H12.8889V13.2111ZM12.8889 26.1H25.9163V28.6778H12.8889V26.1ZM37.6645 19.6556H12.8889V22.2333H35.0884L37.6645 19.6556ZM20.6125 46.8382C21.0457 47.3349 21.5955 47.7162 22.2124 47.9479C22.8294 48.1796 23.4943 48.2545 24.1473 48.1658H36.7204C37.0195 48.1658 37.3064 48.047 37.5179 47.8355C37.7294 47.624 37.8482 47.3371 37.8482 47.038C37.8482 46.7389 37.7294 46.452 37.5179 46.2406C37.3064 46.0291 37.0195 45.9102 36.7204 45.9102H24.1473C22.6796 45.8845 22.9406 44.6101 23.1468 44.2153C23.4157 43.7521 23.6251 43.2568 23.7703 42.7412C23.8666 42.3263 23.8212 41.8911 23.6414 41.5051C23.4615 41.1191 23.1575 40.8044 22.7779 40.6113C22.168 40.3365 21.4848 40.2692 20.8331 40.4196C20.1813 40.5701 19.5967 40.93 19.169 41.4442C18.6147 42.0162 17.8446 42.891 17.1067 43.7417C17.5627 41.955 18.154 39.6623 18.734 37.4261C18.9002 36.9166 18.8671 36.363 18.6414 35.8769C18.4157 35.3908 18.0141 35.0083 17.5176 34.8065C16.9677 34.6178 16.3668 34.6447 15.836 34.8819C15.3053 35.119 14.8842 35.5486 14.6579 36.0841C13.9619 37.4229 8.45186 46.6562 8.39708 46.7496C8.32113 46.8768 8.27096 47.0177 8.24945 47.1642C8.22794 47.3107 8.2355 47.4601 8.2717 47.6037C8.34482 47.8938 8.53017 48.1429 8.78697 48.2963C9.04377 48.4497 9.351 48.4948 9.64105 48.4217C9.93111 48.3485 10.1802 48.1632 10.3336 47.9064C10.5399 47.56 14.9382 40.1924 16.3254 37.7322C15.2814 41.76 14.131 46.2421 14.0634 46.6449C13.9872 46.941 14.0101 47.2539 14.1285 47.5358C14.2469 47.8178 14.4543 48.0531 14.7191 48.2061C15.014 48.3523 15.3492 48.3962 15.6719 48.3309C15.9945 48.2656 16.2862 48.0947 16.501 47.8452C16.704 47.6615 17.0842 47.2249 18.0428 46.1116C18.936 45.0612 19.8507 44.0293 20.7865 43.0167C21.1377 42.6461 21.3504 42.8105 21.1442 43.1746C20.7408 43.6843 20.4792 44.2916 20.3858 44.9349C20.2925 45.5783 20.3707 46.2348 20.6125 46.8382Z" fill="#001334"/>
<path d="M45.1111 34.9531V51.5556H6.44445V6.44445H45.1111V14.4887L47.2539 12.346C47.5837 12.0206 47.9454 11.7292 48.3333 11.476V4.83334C48.3333 4.40605 48.1636 3.99625 47.8615 3.69411C47.5593 3.39197 47.1495 3.22223 46.7222 3.22223H4.83334C4.40605 3.22223 3.99625 3.39197 3.69411 3.69411C3.39197 3.99625 3.22223 4.40605 3.22223 4.83334V53.1667C3.22223 53.594 3.39197 54.0038 3.69411 54.3059C3.99625 54.6081 4.40605 54.7778 4.83334 54.7778H46.7222C47.1495 54.7778 47.5593 54.6081 47.8615 54.3059C48.1636 54.0038 48.3333 53.594 48.3333 53.1667V34.5213C47.3451 35.0449 46.2023 35.1981 45.1111 34.9531Z" fill="#001334"/>
<path d="M54.984 19.1094L54.1414 18.2668C54.5721 17.6977 54.7901 16.9958 54.7577 16.2829C54.7253 15.57 54.4446 14.8908 53.9642 14.363C53.3406 13.8134 52.525 13.5324 51.6952 13.5813C50.8653 13.6302 50.0884 14.005 49.5336 14.624L29.3545 34.8L28.006 39.8621C27.9846 39.9283 27.982 39.9992 27.9985 40.0668C28.0149 40.1344 28.0497 40.1962 28.0991 40.2452C28.1485 40.2942 28.2105 40.3287 28.2782 40.3446C28.3459 40.3606 28.4168 40.3576 28.4829 40.3358L33.5272 38.9712L52.3644 20.134L53.1602 20.9315C53.2158 20.9871 53.2599 21.053 53.29 21.1255C53.3201 21.1981 53.3356 21.2759 53.3356 21.3545C53.3356 21.433 53.3201 21.5108 53.29 21.5834C53.2599 21.6559 53.2158 21.7219 53.1602 21.7774L45.2384 29.6992C44.9968 29.9411 44.8611 30.269 44.8613 30.6109C44.8614 30.9527 44.9974 31.2805 45.2392 31.5222C45.4811 31.7638 45.809 31.8995 46.1509 31.8993C46.4927 31.8992 46.8206 31.7632 47.0622 31.5214L54.984 23.5995C55.5794 23.0038 55.9139 22.1959 55.9139 21.3537C55.9139 20.5114 55.5794 19.7035 54.984 19.1078" fill="#001334"/>
</svg>
