<svg width="55" height="54" viewBox="0 0 55 54" fill="none" xmlns="http://www.w3.org/2000/svg">
<path d="M27.6667 0C42.5786 0 54.6667 12.0881 54.6667 27C54.6667 41.9119 42.5786 54 27.6667 54C12.7548 54 0.666687 41.9119 0.666687 27C0.666687 12.0881 12.7548 0 27.6667 0ZM27.6667 4.5C15.2399 4.5 5.16669 14.5733 5.16669 27C5.16669 39.4268 15.2399 49.5 27.6667 49.5C40.0934 49.5 50.1667 39.4268 50.1667 27C50.1667 14.5733 40.0934 4.5 27.6667 4.5ZM29.3879 14.4641C34.3076 14.4641 37.5104 17.8639 37.5104 22.4629C37.5104 27.0416 34.2367 30.4054 29.2619 30.4054H24.5381V33.8771H31.7133V35.8988H24.5381V39.7991H20.5848V35.8988H17.0579V33.8771H20.5837V30.4065H17.0579V28.3669H20.5837V14.4641H29.3879ZM28.2967 17.8099H24.5392V27.1856H28.2776C31.7493 27.1856 33.4841 25.3609 33.4841 22.4797C33.4841 19.6178 31.7493 17.811 28.2956 17.811" fill="#001334"/>
</svg>
