<svg width="57" height="44" viewBox="0 0 57 44" fill="none" xmlns="http://www.w3.org/2000/svg">
<path d="M54.3334 4H44.3334V0.5C44.3334 0.225 44.1084 0 43.8334 0H40.3334C40.0584 0 39.8334 0.225 39.8334 0.5V4H30.5834V0.5C30.5834 0.225 30.3584 0 30.0834 0H26.5834C26.3084 0 26.0834 0.225 26.0834 0.5V4H16.8334V0.5C16.8334 0.225 16.6084 0 16.3334 0H12.8334C12.5584 0 12.3334 0.225 12.3334 0.5V4H2.33337C1.22712 4 0.333374 4.89375 0.333374 6V42C0.333374 43.1063 1.22712 44 2.33337 44H54.3334C55.4396 44 56.3334 43.1063 56.3334 42V6C56.3334 4.89375 55.4396 4 54.3334 4ZM51.8334 39.5H4.83337V8.5H12.3334V12C12.3334 12.275 12.5584 12.5 12.8334 12.5H16.3334C16.6084 12.5 16.8334 12.275 16.8334 12V8.5H26.0834V12C26.0834 12.275 26.3084 12.5 26.5834 12.5H30.0834C30.3584 12.5 30.5834 12.275 30.5834 12V8.5H39.8334V12C39.8334 12.275 40.0584 12.5 40.3334 12.5H43.8334C44.1084 12.5 44.3334 12.275 44.3334 12V8.5H51.8334V39.5ZM22.3334 21H10.8334C10.5584 21 10.3334 21.225 10.3334 21.5V24.5C10.3334 24.775 10.5584 25 10.8334 25H22.3334C22.6084 25 22.8334 24.775 22.8334 24.5V21.5C22.8334 21.225 22.6084 21 22.3334 21ZM22.3334 29.5H10.8334C10.5584 29.5 10.3334 29.725 10.3334 30V33C10.3334 33.275 10.5584 33.5 10.8334 33.5H22.3334C22.6084 33.5 22.8334 33.275 22.8334 33V30C22.8334 29.725 22.6084 29.5 22.3334 29.5ZM41.5959 18.4125L35.1209 27.3937L31.8209 22.825C31.6334 22.5625 31.3334 22.4125 31.0146 22.4125H27.5834C27.1771 22.4125 26.9396 22.875 27.1771 23.2062L34.3084 33.0938C34.4004 33.2215 34.5215 33.3256 34.6617 33.3974C34.8019 33.4691 34.9571 33.5066 35.1146 33.5066C35.2721 33.5066 35.4273 33.4691 35.5675 33.3974C35.7077 33.3256 35.8288 33.2215 35.9209 33.0938L46.2334 18.8C46.4709 18.4688 46.2334 18.0063 45.8271 18.0063H42.3959C42.0834 18 41.7834 18.1562 41.5959 18.4125Z" fill="#001334"/>
</svg>
